<svg xmlns="http://www.w3.org/2000/svg" viewBox="0 0 128 128">
  <defs><linearGradient id="g" x1="0" y1="0" x2="1" y2="1"><stop offset="0%" stop-color="#60a5fa"/><stop offset="100%" stop-color="#6366f1"/></linearGradient></defs>
  <rect width="128" height="128" rx="64" fill="url(#g)"/>
  <circle cx="64" cy="50" r="23" fill="#D9A47E"/>
  <path d="M38 106c5-17 17-29 26-29s21 12 26 29" fill="#2563eb"/>
  <path d="M42 44c0-15 10-23 22-23 12 0 22 8 22 23-4-3-8-5-13-5-6 0-11 2-15 5-5 3-10 3-16 0z" fill="#3f3f46"/>
  <circle cx="56" cy="52" r="2.4" fill="#0f172a"/>
  <circle cx="72" cy="52" r="2.4" fill="#0f172a"/>
  <path d="M56 63c2.5 2 5 3 8 3s5.5-1 8-3" stroke="#7c2d12" stroke-width="2" fill="none" stroke-linecap="round"/>
</svg>